<svg xmlns="http://www.w3.org/2000/svg" width="32" height="32" viewBox="0 0 32 32"><g transform="translate(999.531 -1406.633)"><path fill="#f05542" fill-rule="evenodd" d="m -994.71583,1436.6202 c -5.74877,-6.696 1.08568,-13.129 -0.0847,-17.4818 4.33624,1.6418 4.98693,4.8982 4.98693,4.8982 0,0 -1.65729,-12.3156 9.59664,-16.4037 -0.31412,6.5 4.92304,5.1044 2.49812,13.1716 1.71484,-2.9857 3.43598,-4.8808 5.83321,-5.5264 -0.37511,6.606 5.0513,10.6712 -1.07776,21.3421 z"/><path fill="#f17f53" fill-rule="evenodd" d="m -989.44879,1436.6328 c -2.02212,-5.602 1.01106,-9.6672 6.57189,-17.2895 0.50553,5.5897 2.52766,2.5408 3.03319,9.1468 1.2191,-4.5734 2.52765,-4.9002 4.54977,-5.4448 -1.01106,5.9529 3.03318,8.506 -2.02212,13.5875 z"/><path fill="#2b4255" fill-rule="evenodd" style="line-height:normal;text-indent:0;text-align:start;text-decoration-line:none;text-decoration-style:solid;text-decoration-color:#000;text-transform:none;block-progression:tb;isolation:auto;mix-blend-mode:normal" d="m -998.53125,1437.6328 0,1 30,0 0,-1 -30,0 z" color="#000" font-family="sans-serif" font-weight="400" overflow="visible"/></g></svg>