<svg xmlns="http://www.w3.org/2000/svg" enable-background="new 0 0 32 32" viewBox="0 0 32 32"><path d="M2,28.5h28c0.83002,0,1.5-0.67999,1.5-1.5V10.45996c0-0.82996-0.66998-1.5-1.5-1.5h-5.71997V7c0-1.92999-1.57001-3.5-3.5-3.5h-9.56006c-1.92999,0-3.5,1.57001-3.5,3.5v1.95996H2c-0.83002,0-1.5,0.67004-1.5,1.5V27C0.5,27.82001,1.16998,28.5,2,28.5z M12.98999,17.22998H14.5v-1.52002c0-0.82996,0.66998-1.5,1.5-1.5s1.5,0.67004,1.5,1.5v1.52002h1.51001c0.83002,0,1.5,0.66998,1.5,1.5c0,0.82001-0.66998,1.5-1.5,1.5H17.5v1.51001c0,0.83002-0.66998,1.5-1.5,1.5s-1.5-0.66998-1.5-1.5v-1.51001h-1.51001c-0.83002,0-1.5-0.67999-1.5-1.5C11.48999,17.89996,12.15997,17.22998,12.98999,17.22998z M10.71997,7c0-0.27002,0.23004-0.5,0.5-0.5h9.56006c0.26996,0,0.5,0.22998,0.5,0.5v1.95996H10.71997V7z"/></svg>