<svg xmlns="http://www.w3.org/2000/svg" data-name="Layer 1" viewBox="0 0 512 512"><g data-name="&lt;Group&gt;"><g data-name="&lt;Group&gt;"><g data-name="&lt;Group&gt;"><rect width="300.14" height="54.46" x="105.93" y="403.65" fill="#00efd1" data-name="&lt;Path&gt;"/></g><g data-name="&lt;Group&gt;"><path fill="#00acea" d="M367.91,225.88V403.64H144.09V204.44A21.441,21.441,0,0,1,165.53,183l180.94-.01a21.441,21.441,0,0,1,21.44,21.44Z" data-name="&lt;Path&gt;"/></g></g><g data-name="&lt;Group&gt;"><path fill="#083863" d="M414,458.11V403.65a7.649,7.649,0,0,0-7.93-7.65H376V204.43a29.512,29.512,0,0,0-29.485-29.44L165.508,175A29.531,29.531,0,0,0,136,204.44V396H105.93A7.649,7.649,0,0,0,98,403.65v54.46a7.848,7.848,0,0,0,7.93,7.89H406.07A7.848,7.848,0,0,0,414,458.11ZM152,204.44A13.494,13.494,0,0,1,165.485,191l181.007-.01A13.514,13.514,0,0,1,360,204.43V396H152ZM398,450H114V412H398Z" data-name="&lt;Compound Path&gt;"/><path fill="#083863" d="M264 121.97V53.89a8 8 0 1 0-16 0v68.08a8 8 0 1 0 16 0zM394.58 252a8 8 0 0 0 8 8h66.2a8 8 0 0 0 0-16h-66.2A8 8 0 0 0 394.58 252zM35.22 252a8 8 0 0 0 8 8h66.2a8 8 0 1 0 0-16H43.22A8 8 0 0 0 35.22 252zM140.331 162.37a8 8 0 0 0 5.734-13.577l-46.81-48.14a8 8 0 0 0-11.471 11.154l46.811 48.14A7.975 7.975 0 0 0 140.331 162.37zM412.745 100.653l-46.81 48.14a8 8 0 1 0 11.47 11.154l46.811-48.14a8 8 0 0 0-11.471-11.154z" data-name="&lt;Path&gt;"/></g></g></svg>