<svg xmlns="http://www.w3.org/2000/svg" width="548.989" height="550.83" fill-rule="evenodd" clip-rule="evenodd" image-rendering="optimizeQuality" shape-rendering="geometricPrecision" text-rendering="geometricPrecision" viewBox="0 0 810.41 813.13"><path fill="#03a9f4" d="M205.91 98.6l234.83 0c-2.31,-34.03 14.4,-68.03 45.93,-86.23 44.12,-25.48 100.55,-10.36 126.02,33.77 2.94,5.1 5.34,10.36 7.21,15.72 63.43,-23.83 136.6,0.97 171.6,61.58 34.99,60.61 19.88,136.38 -32.47,179.4 3.7,4.3 7.06,9.01 10,14.1 25.48,44.12 10.36,100.55 -33.77,126.02 -6.68,3.86 -13.64,6.78 -20.74,8.81l0 155.44c0,113.38 -92.53,205.91 -205.91,205.91l-302.71 0c-113.38,0 -205.91,-92.53 -205.91,-205.91l0 -302.71c0,-113.38 92.53,-205.91 205.91,-205.91z"/><rect width="582.67" height="582.67" x="65.93" y="164.53" fill="#ff6" rx="139.98" ry="139.98"/><path fill="#4fc3f7" d="M648.6 486.06l0 121.16c0,76.99 -62.99,139.98 -139.98,139.98l-302.71 0c-76.99,0 -139.98,-62.99 -139.98,-139.98l0 -121.16 582.67 0z"/><path fill="#03a9f4" d="M231.74 223.8c61.87 0 112.08 50.21 112.08 112.08 0 61.87-50.21 112.08-112.08 112.08-61.87 0-112.08-50.21-112.08-112.08 0-61.87 50.21-112.08 112.08-112.08zm0 79.11c18.21 0 32.96 14.76 32.96 32.96 0 18.21-14.76 32.96-32.96 32.96-18.21 0-32.96-14.76-32.96-32.96 0-18.21 14.76-32.96 32.96-32.96zm251.05 0c18.21 0 32.96 14.76 32.96 32.96 0 18.21-14.76 32.96-32.96 32.96-18.21 0-32.96-14.76-32.96-32.96 0-18.21 14.76-32.96 32.96-32.96zm0-79.11c61.87 0 112.08 50.21 112.08 112.08 0 61.87-50.21 112.08-112.08 112.08-61.87 0-112.08-50.21-112.08-112.08 0-61.87 50.21-112.08 112.08-112.08zm-251.05 39.56c40.04 0 72.52 32.48 72.52 72.52 0 40.04-32.48 72.52-72.52 72.52-40.04 0-72.52-32.48-72.52-72.52 0-40.04 32.48-72.52 72.52-72.52zm251.05 0c40.04 0 72.52 32.48 72.52 72.52 0 40.04-32.48 72.52-72.52 72.52-40.04 0-72.52-32.48-72.52-72.52 0-40.04 32.48-72.52 72.52-72.52zM345.53 644.44l-8.49-14.45c-1.09-1.86-1.94-3.77-2.55-5.73-1.56-4.97-1.57-10.18-.03-15.15.61-1.99 1.48-3.95 2.59-5.84l8.49-14.45-11.14-8.43-15.98-12.09c-11.58-8.76-13.88-25.36-5.12-36.94 8.76-11.58 25.36-13.88 36.94-5.12l45.84 34.68c10.72 8.11 13.64 22.79 6.83 34.39l-12.53 21.32 12.53 21.32c6.81 11.59 3.9 26.28-6.83 34.39l-45.84 34.68c-11.58 8.76-28.18 6.46-36.94-5.12-8.76-11.58-6.46-28.18 5.12-36.94l16.15-12.22 10.98-8.31z"/></svg>